<?xml version="1.0" encoding="UTF-8"?>
<svg xmlns="http://www.w3.org/2000/svg" width="128" height="128" viewBox="0 0 128 128">
  <defs>
    <linearGradient id="bg" x1="0" y1="0" x2="0" y2="1">
      <stop offset="0" stop-color="#62a0ea"/>
      <stop offset="1" stop-color="#1c71d8"/>
    </linearGradient>
    <linearGradient id="shield" x1="0" y1="0" x2="0" y2="1">
      <stop offset="0" stop-color="#ffffff"/>
      <stop offset="1" stop-color="#deddda"/>
    </linearGradient>
    <linearGradient id="lock" x1="0" y1="0" x2="0" y2="1">
      <stop offset="0" stop-color="#3584e4"/>
      <stop offset="1" stop-color="#1a5fb4"/>
    </linearGradient>
    <filter id="sh" x="-20%" y="-20%" width="140%" height="150%">
      <feDropShadow dx="0" dy="2" stdDeviation="2.2" flood-color="#0b2a55" flood-opacity="0.35"/>
    </filter>
  </defs>
  <rect x="8" y="8" width="112" height="112" rx="26" fill="url(#bg)"/>
  <rect x="8.5" y="8.5" width="111" height="111" rx="25.5" fill="none" stroke="#ffffff" stroke-opacity="0.25"/>
  <g fill="none" stroke="#ffffff" stroke-opacity="0.18" stroke-width="3">
    <circle cx="64" cy="64" r="50"/>
    <circle cx="64" cy="64" r="40"/>
  </g>
  <path filter="url(#sh)" fill="url(#shield)"
        d="M64 20 L95 31 V60 C95 80 82 94 64 104 C46 94 33 80 33 60 V31 Z"/>
  <path d="M54 62 V57 a10 10 0 0 1 20 0 V62" fill="none" stroke="url(#lock)" stroke-width="5.5" stroke-linecap="round"/>
  <rect x="49" y="61" width="30" height="24" rx="5" fill="url(#lock)"/>
  <circle cx="64" cy="71.5" r="3.4" fill="#ffffff"/>
  <rect x="62.6" y="72" width="2.8" height="7" rx="1.2" fill="#ffffff"/>
</svg>
